<svg width="90" height="34" viewBox="0 0 90 34" fill="none" xmlns="http://www.w3.org/2000/svg">
<path fill-rule="evenodd" clip-rule="evenodd" d="M78.047 0.563001C81.407 0.0680008 84.483 0.871001 86.555 2.819C88.47 4.581 89.443 7.084 89.192 9.742C88.752 14.657 86.335 18.614 79.554 25.136L68.472 25.507C68.472 25.507 76.164 18.583 79.083 15.214C80.967 13.02 81.783 10.67 80.998 9.094C80.496 8.104 79.398 7.61 78.048 7.672V0.562001L78.047 0.563001ZM55.35 4.457V10.856L64.956 9.836V3.128L55.35 4.458V4.457ZM47.502 33.42V5.54L54.094 4.611V33.421H47.502V33.42ZM21.414 9.155V14.565L28.697 13.761V8.166L21.414 9.156V9.155ZM15.418 33.42V9.99L20.472 9.28V33.42H15.418ZM0.599998 12.03V16.821L13.66 15.4V10.237L0.599998 12.03ZM4.775 17.099V33.42H9.547V16.605L4.775 17.099V17.099ZM21.414 24.055V18.552L26.185 18.15V23.807L21.414 24.055ZM21.414 28.011V33.42H28.697V27.793L21.414 28.01V28.011ZM55.35 22.231V15.709L61.66 15.153V21.891L55.35 22.231ZM55.35 27.023V33.42H64.956V26.712L55.35 27.022V27.023ZM30.612 33.42V7.888L36.357 7.084V33.42H30.612V33.42ZM37.424 27.547V33.42H45.744V27.3L37.424 27.547ZM67.091 26.651L67.122 33.421H89.6V26.001L67.091 26.651V26.651ZM67.405 14.502C67.028 6.775 70.23 2.046 76.76 0.686001L76.791 7.919C75.411 8.475 74.061 9.527 74.374 13.884L67.404 14.502H67.405Z" fill="black"/>
</svg>
